<svg width="24" height="24" viewBox="0 0 24 24" fill="none" xmlns="http://www.w3.org/2000/svg">
<path d="M1.73816 7.15022C1.78924 6.00048 1.964 5.25895 2.20034 4.62952L2.20352 4.62082C2.43772 3.98032 2.80461 3.40008 3.27865 2.9205L3.2853 2.91377L3.29183 2.90692C3.75778 2.41798 4.32125 2.04041 4.94248 1.79979L4.9532 1.79557C5.56283 1.55135 6.28126 1.37199 7.39832 1.31938M1.73816 7.15022C1.68446 8.37867 1.67078 8.75947 1.67078 11.9445C1.67078 15.1304 1.68371 15.5103 1.73813 16.739M1.73816 7.15022L1.73816 7.46009M2.20449 19.2688C2.43807 19.9088 2.8046 20.4892 3.27925 20.9692L3.28589 20.9759L3.29241 20.9828C3.758 21.4711 4.32128 21.849 4.94307 22.0903L4.95235 22.0939C5.56254 22.3377 6.28132 22.5171 7.39832 22.5697M2.20449 19.2688L2.20039 19.2578C1.96331 18.6298 1.7892 17.8897 1.73813 16.739M2.20449 19.2688L2.19048 19.1929M1.73813 16.739L1.75642 16.8382M1.73813 16.739L1.73813 16.4284M2.19048 19.1929L1.75642 16.8382M2.19048 19.1929C2.00613 18.6912 1.8163 17.9912 1.75642 16.8382M2.19048 19.1929C2.19695 19.2105 2.20341 19.2278 2.20986 19.245C2.44365 19.8942 2.81409 20.4821 3.29454 20.9663C3.76447 21.4612 4.33494 21.8427 4.96499 22.0835C5.47062 22.2864 6.18309 22.4984 7.39815 22.5558C8.62435 22.6133 9.00319 22.625 12.0526 22.625C15.102 22.625 15.4812 22.6133 16.7074 22.5558C17.924 22.4983 18.6356 22.2851 19.1394 22.0838C19.7699 21.8431 20.3406 21.4614 20.8107 20.9663C21.291 20.4823 21.6614 19.8946 21.8951 19.2456C22.0921 18.7248 22.2979 17.9909 22.3536 16.7392C22.4094 15.4761 22.4208 15.085 22.4208 11.9445C22.4208 8.80406 22.4094 8.41269 22.3536 7.14955C22.2975 5.8898 22.0887 5.15565 21.8924 4.63616C21.6357 3.95363 21.3102 3.43742 20.8099 2.92206C20.3107 2.40874 19.8109 2.07327 19.1478 1.80861C18.6417 1.60479 17.9285 1.39097 16.7074 1.33332C16.6012 1.32834 16.5014 1.32371 16.4056 1.31939M1.75642 16.8382C1.75473 16.8057 1.75314 16.7728 1.75166 16.7395C1.74683 16.6301 1.74232 16.5271 1.73813 16.4284M7.39832 1.31938C8.59113 1.26332 8.96066 1.25 12.0526 1.25C15.1445 1.25 15.5139 1.26408 16.7064 1.31939M7.39832 1.31938L7.6999 1.31938M16.7064 1.31939L16.4056 1.31939M16.7064 1.31939C17.8227 1.37199 18.5427 1.55199 19.1538 1.79548L19.1622 1.79879C19.784 2.04005 20.3472 2.41799 20.8128 2.9063L20.8193 2.91308L20.8259 2.91975C21.3 3.39937 21.6668 3.97977 21.9008 4.62045L21.9048 4.63129C22.1419 5.25928 22.316 5.99936 22.3671 7.15006M7.6999 1.31938L16.4056 1.31939M7.6999 1.31938C8.70995 1.27389 9.26821 1.2641 12.0526 1.2641C14.8373 1.2641 15.3954 1.27389 16.4056 1.31939M7.6999 1.31938C7.60404 1.3237 7.50412 1.32834 7.39783 1.33332C6.18125 1.39076 5.46962 1.60397 4.96578 1.80528C4.333 2.04691 3.76031 2.43053 3.28923 2.92835C2.7936 3.441 2.46919 3.95474 2.21309 4.63557C2.01522 5.15691 1.80761 5.89191 1.75165 7.14989C1.74683 7.25902 1.74234 7.36164 1.73816 7.46009M22.3671 16.739C22.316 17.8897 22.1419 18.6301 21.9053 19.2587L21.9017 19.2683C21.6675 19.9088 21.3006 20.489 20.8266 20.9686L20.8199 20.9753L20.8134 20.9822C20.3475 21.4711 19.784 21.8487 19.1628 22.0893L19.152 22.0935C18.5424 22.3377 17.824 22.5171 16.7069 22.5697M1.73813 16.4284C1.69397 15.3879 1.68446 14.8128 1.68446 11.9445C1.68446 9.0754 1.69396 8.50112 1.73816 7.46009M1.73813 16.4284L1.73816 7.46009M10.2061 16.5366C10.7915 16.7864 11.419 16.915 12.0526 16.915C13.3323 16.915 14.5596 16.3913 15.4645 15.4592C16.3694 14.527 16.8777 13.2628 16.8777 11.9445C16.8777 10.6263 16.3694 9.36206 15.4645 8.42992C14.5596 7.49779 13.3323 6.97412 12.0526 6.97412C11.419 6.97412 10.7915 7.10268 10.2061 7.35247C9.62073 7.60226 9.08882 7.96838 8.64077 8.42992C8.19272 8.89147 7.8373 9.4394 7.59482 10.0424C7.35233 10.6455 7.22753 11.2918 7.22753 11.9445C7.22753 12.5973 7.35233 13.2436 7.59482 13.8466C7.8373 14.4497 8.19271 14.9976 8.64077 15.4592C9.08882 15.9207 9.62073 16.2868 10.2061 16.5366ZM8.63002 8.41885C9.53775 7.48378 10.7689 6.95846 12.0526 6.95846C13.3363 6.95846 14.5675 7.48378 15.4752 8.41885C16.383 9.35392 16.8929 10.6222 16.8929 11.9445C16.8929 13.2669 16.383 14.5352 15.4752 15.4702C14.5675 16.4053 13.3364 16.9306 12.0526 16.9306C10.7689 16.9306 9.53775 16.4053 8.63002 15.4702C7.72228 14.5352 7.21233 13.2669 7.21233 11.9445C7.21233 10.6222 7.72228 9.35392 8.63002 8.41885ZM19.6185 5.79758C19.6185 6.17607 19.4725 6.53907 19.2127 6.8067C18.9529 7.07434 18.6005 7.22469 18.2331 7.22469C17.8657 7.22469 17.5133 7.07434 17.2535 6.8067C16.9937 6.53907 16.8477 6.17607 16.8477 5.79758C16.8477 5.41909 16.9937 5.05609 17.2535 4.78846C17.5133 4.52082 17.8657 4.37047 18.2331 4.37047C18.6005 4.37047 18.9529 4.52082 19.2127 4.78846C19.4725 5.05609 19.6185 5.41909 19.6185 5.79758Z" stroke="#E4D1BA" stroke-width="2.07951" stroke-linejoin="round"/>
</svg>
