<svg width="33" height="20" viewBox="0 0 33 20" fill="none" xmlns="http://www.w3.org/2000/svg">
<path d="M32.5735 9.99985C32.5735 15.4869 28.2781 19.9997 22.9459 19.9997C17.6631 19.9997 13.3184 15.4869 13.3184 9.99985C13.3184 4.51275 17.6138 0 22.8966 0C28.2781 0 32.5735 4.51275 32.5735 9.99985Z" fill="#90BDD2"/>
<path d="M19.6879 10.0511C19.6879 9.33319 19.5892 8.61525 19.4904 7.9486H13.5658C13.6152 7.58963 13.7139 7.28194 13.8126 6.87169H19.0954C18.9967 6.51272 18.8486 6.15375 18.7005 5.79478H14.2076C14.3557 5.43581 14.5532 5.12813 14.7507 4.71788H18.1574C17.9599 4.35891 17.713 3.99994 17.4168 3.64097H15.5407C15.8369 3.282 16.1331 2.97431 16.5281 2.61534C14.8495 0.974344 12.5783 0 10.0604 0C4.82696 0.153844 0.482239 4.51275 0.482239 9.99985C0.482239 15.4869 4.77759 19.9997 10.1098 19.9997C12.6277 19.9997 14.8495 18.9741 16.5775 17.3844C16.9231 17.0767 17.2193 16.7177 17.5649 16.3074H15.59C15.3432 15.9998 15.0963 15.6408 14.8988 15.2818H18.2561C18.4536 14.9741 18.6511 14.6152 18.7992 14.2049H14.3064C14.1582 13.8972 14.0101 13.5383 13.9114 13.128H19.1942C19.4904 12.2049 19.6879 11.1793 19.6879 10.0511Z" fill="#90BDD2"/>
<path d="M13.5171 12.5631L13.6652 11.64C13.6159 11.64 13.5171 11.6913 13.4184 11.6913C13.0728 11.6913 13.0234 11.4862 13.0728 11.3836L13.369 9.53749H13.9121L14.0602 8.51186H13.5665L13.6652 7.89648H12.6284C12.6284 7.89648 12.0359 11.3836 12.0359 11.7939C12.0359 12.4092 12.3816 12.7169 12.8753 12.7169C13.1715 12.7169 13.4184 12.6144 13.5171 12.5631Z" fill="#212429"/>
<path d="M13.8621 10.8713C13.8621 12.3585 14.8496 12.7174 15.6395 12.7174C16.3801 12.7174 16.7257 12.5636 16.7257 12.5636L16.9232 11.538C16.9232 11.538 16.3801 11.7944 15.837 11.7944C14.7014 11.7944 14.8989 10.9226 14.8989 10.9226H16.9726C16.9726 10.9226 17.1207 10.2559 17.1207 9.94825C17.1207 9.2816 16.7751 8.40982 15.6395 8.40982C14.6521 8.35853 13.8621 9.538 13.8621 10.8713ZM15.6395 9.33288C16.1826 9.33288 16.0839 9.99954 16.0839 10.0508H14.9483C14.9977 9.99954 15.0964 9.33288 15.6395 9.33288Z" fill="#212429"/>
<path d="M22.106 12.5642L22.3035 11.3847C22.3035 11.3847 21.8098 11.6411 21.4148 11.6411C20.7236 11.6411 20.378 11.077 20.378 10.4104C20.378 9.12833 20.9705 8.46167 21.711 8.46167C22.2048 8.46167 22.6491 8.76936 22.6491 8.76936L22.7972 7.64117C22.7972 7.64117 22.2048 7.38477 21.6123 7.38477C20.4274 7.38477 19.2918 8.46167 19.2918 10.4616C19.2918 11.795 19.8843 12.6667 21.1186 12.6667C21.5629 12.718 22.106 12.5642 22.106 12.5642Z" fill="#212429"/>
<path d="M7.93802 8.35938C7.24681 8.35938 6.70372 8.5645 6.70372 8.5645L6.5556 9.48756C6.5556 9.48756 6.99995 9.28244 7.69116 9.28244C8.03676 9.28244 8.33299 9.33372 8.33299 9.64141C8.33299 9.84653 8.28362 9.89781 8.28362 9.89781H7.83927C6.95058 9.89781 6.01251 10.2568 6.01251 11.4875C6.01251 12.4619 6.60497 12.667 6.99995 12.667C7.69116 12.667 8.03676 12.2055 8.08613 12.2055L8.03676 12.6157H8.87608L9.27106 9.69269C9.27106 8.41066 8.28362 8.35938 7.93802 8.35938ZM8.1355 10.7183C8.1355 10.8722 8.03676 11.7439 7.4443 11.7439C7.14807 11.7439 7.04932 11.4875 7.04932 11.3337C7.04932 11.0773 7.19744 10.7183 7.98739 10.7183C8.08613 10.7183 8.1355 10.7183 8.1355 10.7183Z" fill="#212429"/>
<path d="M10.2576 12.6655C10.5044 12.6655 11.7881 12.7168 11.7881 11.281C11.7881 9.94764 10.5538 10.204 10.5538 9.69123C10.5538 9.43483 10.7513 9.33227 11.0969 9.33227C11.245 9.33227 11.7881 9.38355 11.7881 9.38355L11.9362 8.4092C11.9362 8.4092 11.5906 8.30664 10.9488 8.30664C10.2082 8.30664 9.41823 8.61433 9.41823 9.69123C9.41823 10.922 10.7019 10.8194 10.7019 11.281C10.7019 11.5886 10.3563 11.6399 10.1094 11.6399C9.66509 11.6399 9.17137 11.4861 9.17137 11.4861L9.02325 12.4604C9.122 12.563 9.41823 12.6655 10.2576 12.6655Z" fill="#212429"/>
<path d="M30.5993 7.53906L30.4018 8.97494C30.4018 8.97494 30.0068 8.46213 29.4144 8.46213C28.4763 8.46213 27.6863 9.64159 27.6863 11.0262C27.6863 11.898 28.0813 12.7698 28.97 12.7698C29.5625 12.7698 29.9574 12.3595 29.9574 12.3595L29.9081 12.7185H30.9449L31.6855 7.64162L30.5993 7.53906ZM30.1056 10.3083C30.1056 10.8723 29.8587 11.6416 29.2662 11.6416C28.9206 11.6416 28.7232 11.3339 28.7232 10.7698C28.7232 9.898 29.0688 9.38519 29.5625 9.38519C29.9081 9.43647 30.1056 9.69288 30.1056 10.3083Z" fill="#212429"/>
<path d="M2.35835 12.6159L2.95081 8.82109L3.04955 12.6159H3.74076L5.0738 8.82109L4.53071 12.6159H5.61689L6.45621 7.53906H4.77757L3.74076 10.6672L3.69139 7.53906H2.21023L1.37091 12.6159H2.35835Z" fill="#212429"/>
<path d="M18.1578 12.6147C18.4541 10.8712 18.5034 9.43528 19.244 9.69169C19.3428 9.02503 19.4909 8.71734 19.5896 8.46094H19.3921C18.9478 8.46094 18.5528 9.07631 18.5528 9.07631L18.6515 8.51222H17.6641L17.0223 12.6147H18.1578V12.6147Z" fill="#212429"/>
<path d="M24.4771 8.35938C23.7859 8.35938 23.2428 8.5645 23.2428 8.5645L23.0947 9.48756C23.0947 9.48756 23.539 9.28244 24.2302 9.28244C24.5758 9.28244 24.8721 9.33372 24.8721 9.64141C24.8721 9.84653 24.8227 9.89781 24.8227 9.89781H24.3783C23.4896 9.89781 22.5516 10.2568 22.5516 11.4875C22.5516 12.4619 23.144 12.667 23.539 12.667C24.2302 12.667 24.5758 12.2055 24.6252 12.2055L24.5758 12.6157H25.5139L25.9089 9.69269C25.9089 8.41066 24.8227 8.35938 24.4771 8.35938ZM24.7239 10.7183C24.7239 10.8722 24.6252 11.7439 24.0327 11.7439C23.7365 11.7439 23.6378 11.4875 23.6378 11.3337C23.6378 11.0773 23.7859 10.7183 24.5758 10.7183C24.6746 10.7183 24.6746 10.7183 24.7239 10.7183Z" fill="#212429"/>
<path d="M26.6988 12.6147C26.9951 10.8712 27.0444 9.43528 27.785 9.69169C27.8838 9.02503 28.0319 8.71734 28.1306 8.46094H27.9331C27.4888 8.46094 27.0938 9.07631 27.0938 9.07631L27.1926 8.51222H26.2051L25.5633 12.6147H26.6988V12.6147Z" fill="#212429"/>
</svg>
