<svg width="67" height="20" viewBox="0 0 67 20" fill="none" xmlns="http://www.w3.org/2000/svg">
<path d="M60.1549 0H47.3347C48.0815 4.38703 52.1889 8.51601 56.6698 8.51601H66.8761C67.0006 8.12892 67.0006 7.48376 67.0006 7.09667C67.0006 3.22576 63.8889 0 60.1549 0Z" fill="#90BDD2"/>
<path d="M48.4548 9.29102V20.0005H54.6782V14.3232H60.1548C63.142 14.3232 65.7558 12.1297 66.6271 9.29102H48.4548Z" fill="#90BDD2"/>
<path d="M26.5488 0V19.8707H32.0254C32.0254 19.8707 33.3945 19.8707 34.1413 18.4513C37.8753 10.8385 38.9955 8.51601 38.9955 8.51601H39.7423V19.8707H45.9657V0H40.4891C40.4891 0 39.12 0.129038 38.3732 1.41934C35.2615 7.99988 33.519 11.3547 33.519 11.3547H32.7721V0H26.5488Z" fill="#90BDD2"/>
<path d="M0.410889 19.9996V0.128906H6.63426C6.63426 0.128906 8.37682 0.128902 9.37256 2.96757C11.8619 10.4513 12.1109 11.4836 12.1109 11.4836C12.1109 11.4836 12.6087 9.67714 14.8491 2.96757C15.8449 0.128902 17.5874 0.128906 17.5874 0.128906H23.8108V19.9996H17.5874V9.29006H16.8406L13.3555 19.9996H10.6172L7.13216 9.29006H6.38535V19.9996H0.410889Z" fill="#90BDD2"/>
</svg>
