<svg width="56" height="56" viewBox="0 0 56 56" fill="none" xmlns="http://www.w3.org/2000/svg">
<circle cx="28" cy="28" r="28" fill="white"/>
<path d="M14 16.7998V25.1998H22.4" stroke="black" stroke-width="2" stroke-linecap="round" stroke-linejoin="round"/>
<path d="M17.514 32.2005C18.4218 34.777 20.1423 36.9888 22.4163 38.5024C24.6904 40.0161 27.3948 40.7497 30.122 40.5928C32.8492 40.4358 35.4516 39.3968 37.537 37.6322C39.6223 35.8676 41.0778 33.4731 41.6839 30.8094C42.2901 28.1458 42.0141 25.3573 40.8977 22.8641C39.7812 20.3709 37.8847 18.308 35.494 16.9864C33.1032 15.6647 30.3477 15.1559 27.6425 15.5365C24.9374 15.9171 22.4293 17.1665 20.496 19.0965L14 25.2005" stroke="black" stroke-width="2" stroke-linecap="round" stroke-linejoin="round"/>
</svg>
