<svg width="56" height="56" viewBox="0 0 56 56" fill="none" xmlns="http://www.w3.org/2000/svg">
<circle cx="28" cy="28" r="28" fill="white"/>
<path d="M42 34.8881V39.0881C42.0016 39.478 41.9217 39.864 41.7655 40.2212C41.6093 40.5785 41.3802 40.8992 41.0929 41.1627C40.8056 41.4263 40.4664 41.627 40.097 41.7519C39.7277 41.8768 39.3363 41.9232 38.948 41.8881C34.6399 41.42 30.5018 39.9479 26.866 37.5901C23.4833 35.4407 20.6155 32.5728 18.466 29.1901C16.0999 25.5378 14.6275 21.3795 14.168 17.0521C14.133 16.665 14.179 16.2748 14.3031 15.9064C14.4272 15.538 14.6266 15.1995 14.8887 14.9124C15.1507 14.6253 15.4697 14.3959 15.8253 14.2389C16.1809 14.0818 16.5653 14.0005 16.954 14.0001H21.154C21.8334 13.9934 22.4921 14.234 23.0072 14.6771C23.5224 15.1201 23.8589 15.7354 23.954 16.4081C24.1313 17.7522 24.46 19.072 24.934 20.3421C25.1223 20.8432 25.1631 21.3878 25.0514 21.9114C24.9398 22.4349 24.6804 22.9155 24.304 23.2961L22.526 25.0741C24.519 28.5791 27.421 31.4812 30.926 33.4741L32.704 31.6961C33.0846 31.3197 33.5652 31.0603 34.0887 30.9487C34.6123 30.837 35.1569 30.8778 35.658 31.0661C36.9282 31.5401 38.2479 31.8689 39.592 32.0461C40.2721 32.1421 40.8931 32.4846 41.3371 33.0086C41.7811 33.5326 42.017 34.2015 42 34.8881Z" stroke="black" stroke-width="2" stroke-linecap="round" stroke-linejoin="round"/>
</svg>
