<svg width="22" height="25" viewBox="0 0 22 25" fill="none" xmlns="http://www.w3.org/2000/svg">
<path d="M16.1604 4.77621C15.3598 3.83068 14.8784 2.5978 14.8784 1.25H13.8752M16.1604 4.77621C16.89 5.63821 17.878 6.26512 19.0029 6.51059C19.3525 6.58895 19.7173 6.63079 20.0973 6.63079V10.4965C18.1516 10.4965 16.3477 9.85401 14.8783 8.76737V16.6296C14.8783 20.5581 11.7772 23.75 7.97194 23.75C5.98056 23.75 4.18177 22.8723 2.92008 21.4775C1.76987 20.2029 1.06555 18.4998 1.06555 16.6296C1.06555 12.7585 4.07537 9.60323 7.8047 9.51963M16.1604 4.77621C16.1409 4.76311 16.1215 4.74988 16.1021 4.73653M5.4182 18.5207C5.04325 17.9878 4.8203 17.3349 4.8203 16.6244C4.8203 14.8325 6.234 13.375 7.97202 13.375C8.2963 13.375 8.61043 13.4324 8.90433 13.5265V9.57716C8.60028 9.53532 8.29123 9.50918 7.97202 9.50918C7.91626 9.50918 7.46729 9.53995 7.41154 9.53995M13.8699 1.25H11.1236L11.1185 16.7497C11.0578 18.4841 9.66934 19.879 7.97194 19.879C6.91797 19.879 5.9907 19.3409 5.41306 18.5259" stroke="#E4D1BA" stroke-width="2.07951" stroke-linejoin="round"/>
</svg>
