<svg width="56" height="56" viewBox="0 0 56 56" fill="none" xmlns="http://www.w3.org/2000/svg">
<circle cx="28" cy="28" r="28" fill="white"/>
<g clip-path="url(#clip0_76_1827)">
<path d="M37.1 40.6001C39.033 40.6001 40.6 39.0331 40.6 37.1001C40.6 35.1671 39.033 33.6001 37.1 33.6001C35.167 33.6001 33.6 35.1671 33.6 37.1001C33.6 39.0331 35.167 40.6001 37.1 40.6001Z" stroke="black" stroke-width="2" stroke-linecap="round" stroke-linejoin="round"/>
<path d="M18.8999 40.6001C20.8329 40.6001 22.3999 39.0331 22.3999 37.1001C22.3999 35.1671 20.8329 33.6001 18.8999 33.6001C16.9669 33.6001 15.3999 35.1671 15.3999 37.1001C15.3999 39.0331 16.9669 40.6001 18.8999 40.6001Z" stroke="black" stroke-width="2" stroke-linecap="round" stroke-linejoin="round"/>
<path d="M33.6 22.4004H39.2L43.4 26.6004V33.6004H33.6V22.4004Z" stroke="black" stroke-width="2" stroke-linecap="round" stroke-linejoin="round"/>
<path d="M33.5999 15.4004H12.5999V33.6004H33.5999V15.4004Z" stroke="black" stroke-width="2" stroke-linecap="round" stroke-linejoin="round"/>
</g>
<defs>
<clipPath id="clip0_76_1827">
<rect width="33.6" height="33.6" fill="white" transform="translate(11.2 11.2002)"/>
</clipPath>
</defs>
</svg>
