<svg width="25" height="21" viewBox="0 0 25 21" fill="none" xmlns="http://www.w3.org/2000/svg">
<path d="M23.1182 3.66518C22.315 4.03182 21.4521 4.27955 20.545 4.39153C21.4704 3.82075 22.1803 2.91504 22.5151 1.83692C21.6493 2.36607 20.6903 2.75055 19.6696 2.95666C18.852 2.06087 17.688 1.5 16.399 1.5C13.9248 1.5 11.9182 3.56707 11.9182 6.11772C11.9182 6.47842 11.9586 6.82921 12.0336 7.16811C8.308 6.97487 5.00754 5.1367 2.79697 2.34427C2.41219 3.02801 2.19094 3.82075 2.19094 4.66502C2.19094 6.26636 2.98263 7.68042 4.18411 8.50784C3.44917 8.48307 2.75849 8.27596 2.15439 7.93013V7.98958C2.15439 10.2261 3.69832 12.092 5.7492 12.5161C5.37212 12.6212 4.97676 12.6767 4.56889 12.6767C4.2803 12.6767 3.99845 12.6489 3.72526 12.5954C4.29569 14.4286 5.95025 15.7644 7.91167 15.8001C6.37736 17.0387 4.4448 17.777 2.34581 17.777C1.98412 17.777 1.62724 17.7552 1.27612 17.7126C3.25967 19.0236 5.61453 19.7866 8.14447 19.7866C16.3884 19.7866 20.8952 12.753 20.8952 6.65282C20.8952 6.45464 20.8903 6.25447 20.8817 6.05628C21.7571 5.40425 22.517 4.59268 23.1163 3.66815L23.1182 3.66518Z" stroke="#E4D1BA" stroke-width="2.07951" stroke-linejoin="round"/>
</svg>
