<svg width="63" height="20" viewBox="0 0 63 20" fill="none" xmlns="http://www.w3.org/2000/svg">
<path d="M58.436 0.283203H54.5019C53.3125 0.283203 52.3976 0.663318 51.8487 1.89869L44.3464 19.6691H49.6529C49.6529 19.6691 50.5678 17.2934 50.7508 16.7232C51.2997 16.7232 56.5147 16.7232 57.2466 16.7232C57.4296 17.3884 57.887 19.5741 57.887 19.5741H62.6445L58.436 0.283203ZM52.2146 12.732C52.6721 11.5916 54.2274 7.31533 54.2274 7.31533C54.2274 7.41036 54.6849 6.17499 54.8678 5.50979L55.2338 7.22031C55.2338 7.22031 56.2402 11.8767 56.4232 12.827H52.2146V12.732Z" fill="#90BDD2"/>
<path d="M44.7108 13.304C44.7108 17.2952 41.2342 19.956 35.8362 19.956C33.549 19.956 31.3532 19.4809 30.1638 18.9107L30.8957 14.5394L31.5362 14.8245C33.183 15.5847 34.2809 15.8698 36.2937 15.8698C37.7575 15.8698 39.3129 15.2996 39.3129 13.9692C39.3129 13.114 38.6724 12.5438 36.6596 11.5935C34.7383 10.6432 32.1766 9.12276 32.1766 6.36693C32.1766 2.56578 35.7447 0 40.7767 0C42.698 0 44.3448 0.380115 45.3512 0.855259L44.6193 5.03652L44.2533 4.65641C43.3384 4.27629 42.1491 3.89618 40.4107 3.89618C38.4894 3.99121 37.5745 4.84647 37.5745 5.6067C37.5745 6.46196 38.6724 7.12716 40.4107 7.98242C43.3384 9.40785 44.7108 11.0233 44.7108 13.304Z" fill="#90BDD2"/>
<path d="M0.0661621 0.475818L0.157653 0.0957031H8.02583C9.12372 0.0957031 9.94713 0.475818 10.2216 1.71119L11.9599 10.2638C10.2216 5.7024 6.19602 1.99628 0.0661621 0.475818Z" fill="#90BDD2"/>
<path d="M23.0295 0.288388L15.0699 19.5792H9.67194L5.09741 3.42434C8.39107 5.61 11.1358 9.03104 12.1422 11.4068L12.6911 13.4024L17.6316 0.193359H23.0295V0.288388Z" fill="#90BDD2"/>
<path d="M25.1433 0.193359H30.1753L26.9731 19.5792H21.9412L25.1433 0.193359Z" fill="#90BDD2"/>
</svg>
