<svg width="27" height="20" viewBox="0 0 27 20" fill="none" xmlns="http://www.w3.org/2000/svg">
<path fill-rule="evenodd" clip-rule="evenodd" d="M23.1892 2.01749C24.2236 2.30272 25.0365 3.14009 25.3134 4.20563C25.8137 6.13502 25.8157 10.1629 25.8157 10.1629C25.8157 10.1629 25.8157 14.1908 25.3134 16.1202C25.0365 17.1857 24.2236 18.0231 23.1892 18.3083C21.3163 18.8258 13.8025 18.8258 13.8025 18.8258C13.8025 18.8258 6.28892 18.8258 4.41594 18.3083C3.38156 18.0231 2.56868 17.1857 2.29179 16.1202C1.78943 14.1908 1.78943 10.1629 1.78943 10.1629C1.78943 10.1629 1.78943 6.13502 2.29179 4.20563C2.56868 3.14009 3.38156 2.30272 4.41594 2.01749C6.28892 1.5 13.8025 1.5 13.8025 1.5C13.8025 1.5 21.3163 1.5 23.1892 2.01749ZM17.6396 10.1632L11.3976 13.8753V6.45114L17.6396 10.1632Z" stroke="#E4D1BA" stroke-width="2.07951" stroke-linejoin="round"/>
</svg>
