<svg width="36" height="36" viewBox="0 0 36 36" fill="none" xmlns="http://www.w3.org/2000/svg">
<path d="M13 29C13.7956 29 14.5587 28.6839 15.1213 28.1213C15.6839 27.5587 16 26.7956 16 26C16 25.2044 15.6839 24.4413 15.1213 23.8787C14.5587 23.3161 13.7956 23 13 23C12.2044 23 11.4413 23.3161 10.8787 23.8787C10.3161 24.4413 10 25.2044 10 26C10 26.7956 10.3161 27.5587 10.8787 28.1213C11.4413 28.6839 12.2044 29 13 29V29ZM28 29C28.7956 29 29.5587 28.6839 30.1213 28.1213C30.6839 27.5587 31 26.7956 31 26C31 25.2044 30.6839 24.4413 30.1213 23.8787C29.5587 23.3161 28.7956 23 28 23C27.2044 23 26.4413 23.3161 25.8787 23.8787C25.3161 24.4413 25 25.2044 25 26C25 26.7956 25.3161 27.5587 25.8787 28.1213C26.4413 28.6839 27.2044 29 28 29V29Z" stroke="#212429" stroke-width="1.5" stroke-miterlimit="1.5" stroke-linecap="round" stroke-linejoin="round"/>
<path d="M8.975 26H5.9C5.78181 26 5.66478 25.976 5.55558 25.9294C5.44639 25.8828 5.34718 25.8145 5.2636 25.7284C5.18003 25.6423 5.11374 25.5401 5.06851 25.4276C5.02328 25.3151 5 25.1945 5 25.0727V17.5M15.575 26H23V9.92727C23 9.68134 22.9052 9.44549 22.7364 9.27159C22.5676 9.09769 22.3387 9 22.1 9H2L15.575 26Z" stroke="#212429" stroke-width="1.5" stroke-linecap="round"/>
<path d="M4 14H10" stroke="#212429" stroke-width="1.5" stroke-linecap="round" stroke-linejoin="round"/>
<path d="M23 26H24.5M23 14H31.415C31.589 14 31.7592 14.0505 31.9051 14.1453C32.051 14.24 32.1663 14.3751 32.237 14.534L34.922 20.576C34.9732 20.6907 34.9997 20.8149 35 20.9405V25.1C35 25.2182 34.9767 25.3352 34.9315 25.4444C34.8863 25.5536 34.82 25.6528 34.7364 25.7364C34.6528 25.82 34.5536 25.8863 34.4444 25.9315C34.3352 25.9767 34.2182 26 34.1 26H31.25L23 14Z" stroke="#212429" stroke-width="1.5" stroke-linecap="round"/>
</svg>
